<?xml version="1.0" encoding="UTF-8" standalone="no"?>
<!DOCTYPE svg PUBLIC "-//W3C//DTD SVG 1.1//EN" "http://www.w3.org/Graphics/SVG/1.1/DTD/svg11.dtd">
<svg width="100%" height="100%" viewBox="0 0 500 500" version="1.1" xmlns="http://www.w3.org/2000/svg" xmlns:xlink="http://www.w3.org/1999/xlink" xml:space="preserve" xmlns:serif="http://www.serif.com/" style="fill-rule:evenodd;clip-rule:evenodd;stroke-linecap:round;stroke-linejoin:round;stroke-miterlimit:1.5;">
    <path d="M290.982,48.241C237.883,36.616 163.815,36.01 129.442,66.243C125.564,69.654 102.144,90.255 84.491,112.581C81.968,115.772 82.739,116.202 61.485,157.92C55.893,168.897 45.058,224.999 44.474,235.037C40.298,306.81 53.144,334.002 56.816,341.774C95.566,423.796 140.376,443.977 150.755,448.651C160.467,453.025 198.157,470 282.765,466.035C311.531,464.688 310.193,459.203 347.388,449.267C349.964,448.579 348.877,446.644 377.455,434.864C381.514,433.191 407.301,412.57 419.845,388.953C430.624,368.659 449.012,350.738 452.707,291.591C455.662,244.288 455.131,244.456 451.342,197C451.224,195.521 432.615,128.718 395.914,93.86C367.264,66.648 341.525,55.965 287.844,48.337" style="fill:rgb(255,227,0);stroke:black;stroke-width:32.36px;"/>
    <path d="M127.738,185.071C78.054,207.817 143.443,250.141 153.174,215.295C154.237,211.486 155.21,197.189 138.636,185.784" style="stroke:black;stroke-width:0.07px;"/>
    <path d="M353.473,199.202C307.651,213.112 365.436,255.107 374.79,226.607C377.628,217.96 379.293,211.876 366.027,200.397" style="stroke:black;stroke-width:0.07px;"/>
    <path d="M179.718,280.117C191.065,297.211 251.781,308.302 280.423,296.923C281.725,296.405 306.242,284.068 308.087,281.965" style="fill:rgb(255,227,0);stroke:black;stroke-width:27.76px;"/>
</svg>
