<?xml version="1.0" encoding="UTF-8" standalone="no"?>
<!DOCTYPE svg PUBLIC "-//W3C//DTD SVG 1.1//EN" "http://www.w3.org/Graphics/SVG/1.1/DTD/svg11.dtd">
<svg width="100%" height="100%" viewBox="0 0 500 500" version="1.1" xmlns="http://www.w3.org/2000/svg" xmlns:xlink="http://www.w3.org/1999/xlink" xml:space="preserve" xmlns:serif="http://www.serif.com/" style="fill-rule:evenodd;clip-rule:evenodd;stroke-linecap:round;stroke-linejoin:round;stroke-miterlimit:1.5;">
    <path d="M220.644,150.435C195.605,127.629 201.469,114.747 163.227,106.533C153.45,104.433 105.197,110.131 96.979,122.755C83.649,143.232 79.291,203.258 79.452,205.699C82.511,252.017 84.441,249.123 102.84,291.72C112.185,313.358 125.477,322.373 142.749,338.671C188.595,381.933 218.749,363.53 258.946,396.431C263.139,393.152 267.261,387.568 297.258,370.007C298.958,369.011 338.773,344.04 364.557,312.4C376.537,297.699 408.59,230.272 416.871,211.772C419.942,204.91 423.721,155.306 412.961,139.312C392.642,109.111 361.843,95.027 315.5,99.026C234.329,106.03 236.813,144.065 220.644,150.435Z" style="fill:rgb(255,89,124);stroke:black;stroke-width:9.14px;"/>
    <g transform="matrix(1,0,0,1,19,14)">
        <path d="M150.922,203.855C138.705,209.051 153.198,215.356 153.739,211.949C156.887,208.882 157.167,206.168 150.922,203.855Z" style="stroke:black;stroke-width:4.17px;"/>
    </g>
    <g transform="matrix(1,0,0,1,-22,11)">
        <path d="M328.109,200.396C321.613,202.726 320.138,208.294 327.203,208.636C331.801,208.859 336.206,205.254 328.109,200.396Z" style="stroke:black;stroke-width:4.17px;"/>
    </g>
    <path d="M213.089,241.185C232.79,254.14 256.452,251.723 269.706,240.433" style="fill:none;stroke:black;stroke-width:6.35px;"/>
</svg>
