<?xml version="1.0" encoding="UTF-8" standalone="no"?>
<!DOCTYPE svg PUBLIC "-//W3C//DTD SVG 1.1//EN" "http://www.w3.org/Graphics/SVG/1.1/DTD/svg11.dtd">
<svg width="100%" height="100%" viewBox="0 0 500 500" version="1.1" xmlns="http://www.w3.org/2000/svg" xmlns:xlink="http://www.w3.org/1999/xlink" xml:space="preserve" xmlns:serif="http://www.serif.com/" style="fill-rule:evenodd;clip-rule:evenodd;stroke-linecap:round;stroke-linejoin:round;stroke-miterlimit:1.5;">
    <path d="M191.654,60.012C229.631,57.029 229.545,60.039 253.774,58.712C255.672,58.608 255.301,57.453 277.301,55.363C274.088,78.294 270.664,142.015 276.921,156.058C303.566,152.031 303.212,149.748 342.059,149.748C346.17,149.748 345.987,147.399 393.331,146.368C392.029,172.122 400.133,179.134 396.496,217.248C372.482,222.207 361.491,230.277 346.543,231.746C319.949,234.361 319.817,242.241 293.255,240.177C296.239,267.813 295.112,277.291 294.564,305.26C293.889,339.754 296.579,359.476 296.806,383.934C297.004,405.263 300.738,416.678 300.737,431.004C237.87,442.746 218.512,441.394 218.186,436.05C217.288,421.365 216.129,365.32 216.045,355.308C215.94,342.675 212.11,300.247 205.49,254.574C203.512,240.924 182.929,271.547 93.661,265.367C91.473,265.215 81.114,207.865 90.828,202.685C112.101,191.341 182.809,189.523 186.866,171.039C193.467,140.961 184.397,108.325 191.185,81.702C191.356,81.032 192.588,64.666 191.654,60.012Z" style="fill:rgb(200,171,135);stroke:black;stroke-width:19.11px;"/>
    <g transform="matrix(2.996706,0,0,2.996706,-384.673632,-393.645115)">
        <path d="M188.286,198.149C182.354,198.588 187.981,203.527 189.947,202.779C194.455,201.062 188.642,198.317 188.286,198.149Z" style="stroke:black;stroke-width:1.39px;"/>
    </g>
    <g transform="matrix(3.361081,0,0,3.361081,-630.023779,-439.920547)">
        <path d="M276.97,185.494C272.925,185.126 275.102,190.053 276.495,190.122C280.176,190.306 279.654,188.178 276.97,185.494Z" style="stroke:black;stroke-width:1.89px;"/>
    </g>
    <g transform="matrix(2.168879,0,0,1,-264.988669,10)">
        <path d="M223.281,214.865C225.081,216.855 241.151,224.97 248.947,213.888" style="fill:none;stroke:black;stroke-width:9.71px;"/>
    </g>
</svg>
