<?xml version="1.0" encoding="UTF-8" standalone="no"?>
<!DOCTYPE svg PUBLIC "-//W3C//DTD SVG 1.1//EN" "http://www.w3.org/Graphics/SVG/1.1/DTD/svg11.dtd">
<svg width="100%" height="100%" viewBox="0 0 500 500" version="1.1" xmlns="http://www.w3.org/2000/svg" xmlns:xlink="http://www.w3.org/1999/xlink" xml:space="preserve" xmlns:serif="http://www.serif.com/" style="fill-rule:evenodd;clip-rule:evenodd;stroke-linecap:round;stroke-linejoin:round;stroke-miterlimit:1.5;">
    <path d="M117.031,105.147C119.379,84.082 131.924,46.986 134.546,48.322C136.546,49.34 178.302,72.973 202.139,78.573C214.674,81.519 232.7,45.953 241.385,39.78C252.169,32.116 264.231,91.698 284.534,88.648C319.032,83.465 326.261,69.18 335.8,68.719C357.386,67.676 337.109,103.423 344.998,127.545C372.368,137.854 419.433,107.954 414.977,120.16C411.431,129.871 402.979,159.11 400.197,185.267C424.236,206.813 459.593,210.198 447.772,217.054C442.169,220.303 415.911,249.287 418.024,259.029C421.198,273.66 436.736,281.491 457.745,306.078C410.336,316.399 398.941,328.932 400.708,341.064C404.889,369.763 407.521,365.831 415.54,394.258C418.086,403.285 365.622,397.171 331.692,392.081C312.047,389.134 300.213,420.027 279.697,444.27C272.366,452.932 265.911,436.732 257.175,429.244C234.374,409.7 232.422,409.246 229.772,407.981C223.265,404.876 199.651,422.979 183.83,429.39C152.052,442.268 135.286,448.069 134.499,433.641C133.53,415.888 133.959,407.07 132.498,389.191C109.75,386.309 90.176,387.992 72.177,378.233C74.674,375.969 88.248,344.661 93.053,322.634C94.224,317.264 54.212,305.311 35.658,275.154C30.613,266.954 82.988,232.851 79.865,231.116C75.804,228.859 59.68,211.431 43.243,175.843C45.448,175.412 72.892,171.653 88.467,159.46C66.99,125.122 53.755,123.023 50.909,103.664C50.051,97.824 102.525,103.075 117.031,105.147Z" style="fill:rgb(255,189,0);stroke:black;stroke-width:10.75px;"/>
    <g transform="matrix(1,0,0,1,-31,-11)">
        <path d="M248.228,124.004C183.026,128.686 162.085,166.308 158.084,173.496C139.319,207.208 149.462,212.26 143.514,254.794C139.563,283.048 147.814,301.709 149.464,305.44C165.295,341.242 158.327,346.799 189.866,370.237C222.75,394.674 294.844,390.281 304.098,389.718C332.071,388.014 332.057,387.874 358.408,378.734C365.634,376.228 385.294,352.467 394.954,334.226C400.244,324.235 433.273,296.913 389.62,215.808C372.1,183.258 304.028,133.928 286.343,131.134C267.344,128.132 267.847,126.455 248.82,124.468" style="fill:rgb(255,240,0);stroke:black;stroke-width:10.15px;"/>
    </g>
    <g transform="matrix(1,0,0,1,21,16)">
        <path d="M153.323,215.983C149.369,227.89 160.768,231.386 162.969,225.326C166.987,214.261 156.683,212.145 153.323,215.983Z" style="stroke:black;stroke-width:4.17px;"/>
    </g>
    <g transform="matrix(1,0,0,1,-2,12)">
        <path d="M310.172,214.667C291.614,218.177 309.442,240.66 315.8,229.041C316.292,228.142 318.229,215.195 310.172,214.667Z" style="stroke:black;stroke-width:4.17px;"/>
    </g>
    <g transform="matrix(1,0,0,1,3,9)">
        <path d="M207.578,259.439C233.584,267.36 249.379,265.747 263.887,256.43" style="fill:none;stroke:black;stroke-width:7.84px;"/>
    </g>
</svg>
