<?xml version="1.0" encoding="UTF-8" standalone="no"?>
<!DOCTYPE svg PUBLIC "-//W3C//DTD SVG 1.1//EN" "http://www.w3.org/Graphics/SVG/1.1/DTD/svg11.dtd">
<svg width="100%" height="100%" viewBox="0 0 500 500" version="1.1" xmlns="http://www.w3.org/2000/svg" xmlns:xlink="http://www.w3.org/1999/xlink" xml:space="preserve" xmlns:serif="http://www.serif.com/" style="fill-rule:evenodd;clip-rule:evenodd;stroke-linecap:round;stroke-linejoin:round;stroke-miterlimit:1.5;">
    <g transform="matrix(1,0,0,1,-11,-11)">
        <path d="M88.646,102.964C87.501,133.275 96.005,132.642 96.005,192.469C96.005,292.749 103.254,292.278 104.249,314.048C106.899,372.01 108.841,442.545 122.775,442.037C181.012,439.916 189.559,434.151 247.694,432.342C261.025,431.928 264.699,433.635 344.153,426.881C374.167,424.329 444.876,418.671 444.552,416.202C437.428,361.885 435.931,329.774 425.41,296.071C411.41,251.22 405.141,208.863 391.214,124.053C382.248,69.457 392.518,60.297 377.665,63.504C369.983,65.162 380.642,59.255 291.776,76.686C277.654,79.456 205.612,85.421 191.495,88.604C140.549,100.092 126.644,88.544 88.502,103.121" style="fill:rgb(255,244,189);stroke:black;stroke-width:7.4px;"/>
    </g>
    <g transform="matrix(1.361402,0,0,1.639061,-43.256576,-128.3908)">
        <path d="M152.913,230.388C151.402,230.085 145.408,239.796 157.749,236.024C163.871,234.153 161.569,222.609 152.977,229.892" style="stroke:black;stroke-width:0.01px;"/>
    </g>
    <g transform="matrix(0.773587,0,0,1.438703,83.624338,-71.332252)">
        <path d="M315.258,208.246C299.126,208.82 303.355,215.1 304.283,215.607C314.292,221.076 329.046,211.905 314.963,208.187" style="stroke:black;stroke-width:0.01px;"/>
    </g>
    <path d="M196.593,270.886C212.912,277.516 209.241,282.907 253.076,279.043C278.925,276.764 298.759,270.538 299.186,260.867" style="fill:none;stroke:black;stroke-width:7.63px;"/>
    <path d="M123.762,155.087C120.512,127.959 112.326,114.467 125.125,122.267C149.464,137.098 152.733,154.067 153.104,142.421C153.171,140.32 153.703,123.67 150.03,116.324" style="fill:none;stroke:black;stroke-width:6.87px;"/>
    <g>
        <path d="M177.823,113.156C179.857,142.002 178.185,143.296 181.94,144.701C185.754,146.128 185.694,145.179 199.7,142.448" style="fill:none;stroke:black;stroke-width:6.87px;"/>
        <path d="M179.754,131.019C188.902,131.137 188.645,131.799 197.855,132.346" style="fill:none;stroke:black;stroke-width:6.87px;"/>
        <path d="M177.999,116.846C184.429,116.362 184.188,116.479 199.287,115.934" style="fill:none;stroke:black;stroke-width:6.87px;"/>
    </g>
    <path d="M222.146,111.681C232.78,119.92 236.742,134.752 243.708,142.351C244.353,131.897 254.147,121.744 252.605,120.196C282.267,152.42 271.437,125.87 272.13,102.107" style="fill:none;stroke:black;stroke-width:6.87px;"/>
    <path d="M316.369,97.3C305.106,93.637 298.813,106.507 302.774,108.668C309.328,112.245 323.692,117.7 328.291,119.339C331.408,142.301 312.961,136.129 307.279,129.103" style="fill:none;stroke:black;stroke-width:6.87px;"/>
</svg>
